<?xml version="1.0" encoding="UTF-8"?>
<svg id="Ebene_1" data-name="Ebene 1" xmlns="http://www.w3.org/2000/svg" xmlns:xlink="http://www.w3.org/1999/xlink" version="1.1" viewBox="0 0 374.2 95.3">
  <defs>
    <style>
      .cls-1 {
        fill: url(#Unbenannter_Verlauf_12);
      }

      .cls-1, .cls-2, .cls-3, .cls-4 {
        stroke-width: 0px;
      }

      .cls-2 {
        fill: url(#Unbenannter_Verlauf_14);
      }

      .cls-3 {
        fill: url(#Unbenannter_Verlauf_13);
      }

      .cls-4 {
        fill: #c91433;
      }
    </style>
    <linearGradient id="Unbenannter_Verlauf_12" data-name="Unbenannter Verlauf 12" x1="35.5" y1="93.7" x2="130.5" y2="-4.4" gradientUnits="userSpaceOnUse">
      <stop offset="0" stop-color="#e72787"/>
      <stop offset="1" stop-color="#c6143b"/>
    </linearGradient>
    <linearGradient id="Unbenannter_Verlauf_14" data-name="Unbenannter Verlauf 14" x1="15.7" y1="74.5" x2="110.7" y2="-23.6" gradientUnits="userSpaceOnUse">
      <stop offset="0" stop-color="#e72787"/>
      <stop offset="1" stop-color="#c6143b"/>
    </linearGradient>
    <linearGradient id="Unbenannter_Verlauf_13" data-name="Unbenannter Verlauf 13" x1="32.7" y1="90.9" x2="127.7" y2="-7.2" gradientUnits="userSpaceOnUse">
      <stop offset="0" stop-color="#e72787"/>
      <stop offset="1" stop-color="#c6143b"/>
    </linearGradient>
  </defs>
  <g>
    <path class="cls-1" d="M66.2,30.7c0,5,0,10.1,0,15.1.1,9.4,4.2,16.8,12.1,21.8,8.5,5.3,17.5,5.5,26.3.7,7.4-4,11.6-10.4,13-18.7.3-1.5.3-3.1.3-4.7,0-10.6,0-21.2,0-31.8,0-6,4.7-11.4,10.3-12.7,8.4-1.9,16.2,4.3,16.3,12.9,0,9.5,0,18.9,0,28.4,0,11.5-3.6,21.9-10.4,31.1-5,6.7-11.2,12-18.6,15.8-6.5,3.3-13.4,5.2-20.8,5.6-7.2.4-14.2-.7-20.9-3.2-5.5-2-10.4-4.9-14.9-8.7-6.6-5.4-11.6-12-15-19.9-2.3-5.3-3.8-10.8-4.3-16.6-.1-1.6-.2-3.2-.2-4.7,0-9.2,0-18.4,0-27.6,0-7.2,5.6-13.1,12.7-13.5,6.9-.3,13.1,4.6,13.9,11.7.1,1,.2,2,.2,3.1,0,5.3,0,10.6,0,15.9h0Z"/>
    <path class="cls-2" d="M57.7,95.1c-.5.3-.9.2-1.3.1-6.2-.9-12.2-2.5-18-5-5.7-2.6-11.1-5.8-15.8-9.9-5.8-4.9-10.7-10.6-14.4-17.2-3.9-6.9-6.4-14.2-7.5-22C.3,38.1,0,35.1,0,32.1c0-5.5,3.1-10.1,8.3-12,4.6-1.7,10.6-.9,14.4,3.1,1.7,1.8,2.7,4,3.1,6.4.2,1.1.3,2.2.2,3.3,0,3.5,0,7,0,10.5.2,10.9,3.2,21.1,9,30.4,2.5,4.1,5.5,7.8,8.9,11.1,3.7,3.6,7.8,6.7,12.3,9.2.5.3,1.1.3,1.6.9Z"/>
    <path class="cls-3" d="M105.5,29.4c0,5.3,0,10.5,0,15.8,0,2.2-.3,4.4-1.4,6.5-2.4,4.6-6.2,7.1-11.4,7.4-5.4.3-9.5-2.1-12.3-6.7-1-1.7-1.6-3.6-1.7-5.6-.2-3.4,0-6.8,0-10.2,0-3.9,0-7.9,0-11.8,0-1.4,0-2.8,0-4.2,0-1.2,0-2.3-.1-3.5-.1-2.3,0-4.5.4-6.8,1.5-6.6,7.9-11,14.6-10.2,7,.9,11.8,6.4,11.9,13.4,0,5.3,0,10.6,0,15.9Z"/>
  </g>
  <g>
    <path class="cls-4" d="M179.8,59.3h11.3c1.6,0,2.8,1.3,2.8,2.8v.7c0,1.6-1.3,2.8-2.8,2.8h-15.1c-1.6,0-2.8-1.3-2.8-2.8v-27.9c0-1.6,1.3-2.8,2.8-2.8h14.9c1.6,0,2.8,1.3,2.8,2.8v.7c0,1.6-1.3,2.8-2.8,2.8h-11.1v7.2h9.9c1.6,0,2.8,1.3,2.8,2.8v.6c0,1.6-1.3,2.8-2.8,2.8h-9.9v7.5Z"/>
    <path class="cls-4" d="M218.9,41.7h.5c1.6,0,2.8,1.3,2.8,2.8v18.3c0,1.6-1.3,2.8-2.8,2.8h-.5c-1.6,0-2.8-1.3-2.8-2.8h0c-1.9,2.3-4.5,3.5-7.8,3.5s-5.9-1.2-8.2-3.7c-2.3-2.4-3.4-5.4-3.4-9s1.1-6.6,3.4-9c2.3-2.4,5-3.7,8.2-3.7s6,1.2,7.8,3.5h0c0-1.6,1.3-2.8,2.8-2.8ZM204.6,58.5c1.2,1.3,2.8,1.9,4.8,1.9s3.5-.6,4.8-1.9,1.9-2.9,1.9-4.9-.6-3.6-1.9-4.9c-1.3-1.3-2.9-1.9-4.8-1.9s-3.5.6-4.8,1.9c-1.2,1.3-1.9,2.9-1.9,4.9s.6,3.6,1.9,4.9Z"/>
    <path class="cls-4" d="M233.4,48.5c0,.6.4,1.2,1.3,1.6.8.4,1.9.8,3.1,1.1,1.2.3,2.4.7,3.6,1.2,1.2.5,2.2,1.2,3.1,2.3.8,1.1,1.3,2.4,1.3,4.1,0,2.5-.9,4.4-2.8,5.7-1.8,1.3-4.1,2-6.9,2s-6-.9-7.9-2.7-1.1-3.6.5-4.6l.3-.2c1.1-.6,2.5-.5,3.4.4s2.1,1.4,3.7,1.4,3.3-.7,3.3-2.1-.4-1.2-1.3-1.6c-.8-.4-1.9-.8-3.1-1.1-1.2-.3-2.4-.7-3.6-1.2-1.2-.5-2.2-1.2-3.1-2.3-.8-1-1.3-2.3-1.3-3.9,0-2.4.9-4.2,2.6-5.6,1.7-1.4,3.9-2,6.5-2s3.7.4,5.3,1.3c.4.2.7.4,1,.6,1.7,1.2,1.5,3.8-.3,4.8h-.1c-1,.6-2.3.5-3.2-.3s-1.6-1-2.8-1-1.5.2-2,.5c-.5.4-.8.8-.8,1.4Z"/>
    <path class="cls-4" d="M266.5,41.7h.5c2,0,3.3,2,2.7,3.8l-7.4,20.2c-1.2,3.5-2.9,6-5,7.5-1.3.9-2.7,1.6-4.3,1.9s-3.4-1-3.4-2.8v-.2c0-1.3.9-2.4,2.1-2.7s1.3-.5,1.9-.8c1-.7,1.8-1.9,2.3-3.6l-8.2-19.3c-.8-1.9.6-3.9,2.6-3.9h.6c1.2,0,2.2.7,2.6,1.8l5.5,14.3,4.7-14.2c.4-1.2,1.5-1.9,2.7-1.9Z"/>
    <path class="cls-4" d="M296.2,32.1h.9c1.6,0,2.8,1.3,2.8,2.8v27.9c0,1.6-1.3,2.8-2.8,2.8h-.9c-1.6,0-2.8-1.3-2.8-2.8v-11.1h-12.5v11.1c0,1.6-1.3,2.8-2.8,2.8h-1c-1.6,0-2.8-1.3-2.8-2.8v-27.9c0-1.6,1.3-2.8,2.8-2.8h1c1.6,0,2.8,1.3,2.8,2.8v10.5h12.5v-10.5c0-1.6,1.3-2.8,2.8-2.8Z"/>
    <path class="cls-4" d="M312.1,45.8c.6-1.5,1.5-2.7,2.9-3.5,0,0,.2-.1.3-.2,1.9-1,4.1.4,4.1,2.5v.5c0,1.4-.9,2.7-2.3,2.9s-1.9.5-2.7,1.1c-1.5,1-2.2,2.6-2.2,4.9v8.6c0,1.6-1.3,2.8-2.8,2.8h-.5c-1.6,0-2.8-1.3-2.8-2.8v-18.3c0-1.6,1.3-2.8,2.8-2.8h.5c1.6,0,2.8,1.3,2.8,2.8v1.3Z"/>
    <path class="cls-4" d="M327.3,56.2c.8,3,3.1,4.5,6.8,4.5s3-.4,4.1-1.2,2.1-.8,3.1-.2h0c1.8,1,1.9,3.6.3,4.7s-4.6,2.2-7.6,2.2-7.2-1.2-9.6-3.6c-2.4-2.4-3.6-5.4-3.6-9.1s1.2-6.6,3.6-9c2.4-2.4,5.4-3.6,9.1-3.6s6.4,1.2,8.7,3.6c2.3,2.4,3.4,5.4,3.4,9s0,1.6-.2,2.5h-18.1ZM327.2,51.4h12.2c-.4-1.6-1.1-2.8-2.2-3.6-1.1-.8-2.4-1.2-3.8-1.2s-3,.4-4.1,1.3c-1.1.8-1.8,2-2.2,3.6Z"/>
    <path class="cls-4" d="M371,41.7h.4c1.6,0,2.8,1.3,2.8,2.8v20c0,3.7-1.2,6.5-3.7,8.5-2.4,2-5.4,2.9-8.9,2.9s-4.9-.5-6.8-1.5c-.8-.4-1.4-.8-2.1-1.3-1.5-1.3-1.4-3.7.4-4.7l.3-.2c1.1-.6,2.4-.5,3.3.4s2.9,1.8,5.1,1.8,3.5-.5,4.6-1.5c1.1-1,1.7-2.5,1.7-4.4v-2.6c-1.8,2.4-4.4,3.6-7.7,3.6s-6.2-1.2-8.5-3.6c-2.3-2.4-3.4-5.3-3.4-8.7s1.2-6.3,3.5-8.7c2.3-2.4,5.1-3.6,8.5-3.6s5.9,1.2,7.7,3.6h0c0-1.7,1.3-3,2.8-3ZM356.6,58c1.3,1.2,2.9,1.8,4.8,1.8s3.6-.6,4.8-1.8c1.3-1.2,1.9-2.8,1.9-4.7s-.6-3.4-1.9-4.7c-1.3-1.2-2.9-1.8-4.8-1.8s-3.6.6-4.8,1.8c-1.3,1.2-1.9,2.8-1.9,4.7s.6,3.5,1.9,4.7Z"/>
  </g>
</svg>